/* XPM */
static char *_98cc1ccfc594eafac55e5c284d1fb55BxSkm5M48HR2KzHK[] = {
/* columns rows colors chars-per-pixel */
"50 50 135 2 ",
"   c #000000",
".  c #020F04",
"X  c #0E0A03",
"o  c #130E07",
"O  c #0D1113",
"+  c #2D1C1B",
"@  c #002D05",
"#  c #08200B",
"$  c #003409",
"%  c #02380D",
"&  c #192414",
"*  c #2A2316",
"=  c #332816",
"-  c #33221E",
";  c #1C3C22",
":  c #352420",
">  c #48342C",
",  c #5E3C36",
"<  c #084B14",
"1  c #0E4E1E",
"2  c #0A5218",
"3  c #036012",
"4  c #09761D",
"5  c #027B1A",
"6  c #097D1F",
"7  c #1D4D21",
"8  c #2A5624",
"9  c #335329",
"0  c #296326",
"q  c #357632",
"w  c #51432C",
"e  c #5B4337",
"r  c #466735",
"t  c #447C39",
"y  c #444443",
"u  c #535455",
"i  c #6A5241",
"p  c #715044",
"a  c #775648",
"s  c #615F5D",
"d  c #77644A",
"f  c #7A674B",
"g  c #627566",
"h  c #7D7672",
"j  c #846651",
"k  c #8E6F57",
"l  c #8C7358",
"z  c #93755B",
"x  c #05831D",
"c  c #008C1B",
"v  c #01921E",
"b  c #078720",
"n  c #0B8C23",
"m  c #019520",
"M  c #089A26",
"N  c #0FA329",
"B  c #0ECF31",
"V  c #13C433",
"C  c #0DD232",
"Z  c #1DD03B",
"A  c #1ADF3C",
"S  c #00EB26",
"D  c #02E72C",
"F  c #01ED2F",
"G  c #0EE435",
"H  c #0BED35",
"J  c #0EEE38",
"K  c #12E237",
"L  c #10E738",
"P  c #12ED3A",
"I  c #19E93F",
"U  c #0DF338",
"Y  c #11F33B",
"T  c #12FC3D",
"R  c #66966E",
"E  c #1DEF45",
"W  c #15FF41",
"Q  c #1BFF45",
"!  c #23EF49",
"~  c #2AEC4D",
"^  c #31E753",
"/  c #39F25B",
"(  c #43EF63",
")  c #50EE6C",
"_  c #47F164",
"`  c #4CF56E",
"'  c #51FF73",
"]  c #8E847D",
"[  c #A68E6B",
"{  c #AD936D",
"}  c #AD9775",
"|  c #B09D71",
" . c #BA9A74",
".. c #BDA177",
"X. c #BCAA79",
"o. c #C3AA7C",
"O. c #6AF181",
"+. c #75F48D",
"@. c #7BF592",
"#. c #7DF895",
"$. c #A6A9A8",
"%. c #ADACB0",
"&. c #CEB283",
"*. c #D6B586",
"=. c #D8B788",
"-. c #DCBD8B",
";. c #81F295",
":. c #95F7A7",
">. c #AEF6BC",
",. c #B2F6BF",
"<. c #E5C28F",
"1. c #E6C491",
"2. c #EDC995",
"3. c #F1CD97",
"4. c #F7D49C",
"5. c #FDD69F",
"6. c #FCD89F",
"7. c #FFD8A0",
"8. c #FFE1A6",
"9. c #FFE4A8",
"0. c #FFEFB0",
"q. c #FFF4B4",
"w. c #FFFBB9",
"e. c #C4BEC4",
"r. c #B7F6C4",
"t. c #C7D0CA",
"y. c #C3ECCA",
"u. c #D0EED4",
"i. c #D1FFDA",
"p. c #E6F8E9",
"a. c #EDFCF0",
"s. c #F6F9F6",
"d. c #FAF6F9",
"f. c #F7FCF8",
"g. c #FFFEFF",
/* pixels */
"7.7.7.7.7.7.7.7.7.7.7.7.7.5.7.7.7.7.7.7.7.7.7.7.7.7.7.7.7.7.7.7.7.7.7.7.5.7.7.7.7.7.7.7.7.7.7.7.7.7.",
"7.7.7.7.7.7.7.7.7.7.7.7.7.7.7.7.7.7.7.7.7.7.7.7.7.7.7.7.7.5.7.7.7.7.7.7.7.7.7.7.7.7.7.7.7.7.7.7.7.7.",
"7.7.7.7.7.7.7.7.7.7.7.7.7.7.7.7.7.7.7.7.7.7.7.7.7.7.7.7.7.7.7.7.7.7.7.7.7.7.7.7.7.7.7.7.7.7.7.7.7.7.",
"7.7.7.7.7.7.7.7.7.7.7.7.7.7.7.7.7.7.7.7.7.7.7.7.7.7.7.7.7.7.7.7.7.7.7.7.7.7.7.7.7.7.7.7.7.7.7.7.7.7.",
"7.7.7.7.7.5.7.7.7.7.7.7.7.7.7.7.7.7.7.7.7.7.7.7.7.7.7.7.7.7.7.7.7.7.7.7.7.7.7.7.7.7.7.7.7.5.7.7.7.7.",
"7.7.7.7.7.7.7.7.7.7.7.7.7.7.7.7.7.7.7.7.7.5.7.7.7.7.7.7.7.7.7.7.7.7.7.7.7.7.7.7.7.7.7.7.7.7.7.7.7.7.",
"7.7.7.7.7.7.7.7.7.7.7.7.7.7.7.7.7.7.7.7.7.7.7.7.7.7.7.7.7.7.7.7.7.7.7.7.7.7.7.7.7.7.7.7.7.7.7.7.7.7.",
"7.7.7.7.7.7.7.7.7.7.7.7.7.7.5.7.7.7.7.7.7.7.7.7.7.7.7.7.7.7.7.7.7.7.7.7.7.7.7.5.7.7.7.7.7.7.7.7.7.7.",
"7.7.7.7.7.7.7.7.7.7.5.7.7.7.7.7.7.7.7.7.7.7.7.7.7.7.7.7.7.7.7.7.7.7.7.7.7.7.7.7.7.7.7.7.7.7.7.7.7.7.",
"7.7.7.7.7.7.7.7.7.7.7.7.7.7.7.7.7.7.7.7.7.7.7.7.7.5.7.7.7.7.7.7.7.7.7.7.7.7.7.7.5.7.7.7.7.7.7.7.5.7.",
"7.7.7.7.7.7.7.7.7.7.7.7.7.7.7.7.7.7.7.7.7.7.7.7.5.5.5.7.5.7.7.7.7.7.7.7.7.7.7.7.7.7.7.7.7.7.7.7.7.7.",
"7.7.7.7.7.7.7.7.7.7.7.7.7.7.7.7.7.7.7.7.7.7.7.7.8.8.7.7.7.7.7.7.7.7.7.7.7.7.7.7.7.7.7.7.7.7.7.7.7.7.",
"7.7.7.7.7.7.7.7.7.7.7.7.7.7.7.7.7.7.7.7.7.7.7.-.....-.7.5.7.7.7.7.7.7.7.7.7.7.7.7.7.7.7.7.7.7.7.7.7.",
"7.7.7.7.7.7.7.7.7.7.7.7.7.7.7.7.7.7.7.7.4.7.q.f     l q.4.7.7.5.5.7.7.7.7.7.7.7.7.7.7.7.7.7.7.7.7.7.",
"5.7.7.7.7.7.7.7.7.7.7.7.7.7.7.7.4.7.4.7.9.=.w ] $.N q p 3.7.5.7.7.5.7.7.7.7.7.7.7.7.7.7.7.7.7.7.7.7.",
"7.7.7.7.7.7.7.7.7.7.7.7.7.7.7.5.7.7.7.4.2.} O $.g.Q c # X.2.4.5.7.5.7.7.7.7.7.7.7.7.7.7.7.7.7.7.7.7.",
"7.7.7.7.7.7.7.7.7.7.7.7.7.7.6.7.7.7.7.0.= y g.d.p.I J A . a q.5.7.7.7.7.7.7.7.7.7.7.7.7.7.5.7.7.7.7.",
"7.7.7.7.7.7.7.7.7.7.7.7.7.7.7.7.5.7.*.d h %.g.g.a.E U P m q j 1.7.5.7.7.7.7.7.7.7.7.7.7.7.7.7.7.5.7.",
"7.7.7.7.7.7.7.7.7.7.7.7.7.7.7.7.7.7.[   t.g.s.f.i.I G L T M   o.6.5.7.5.7.7.7.7.7.7.7.7.7.7.7.7.7.7.",
"7.7.7.7.7.7.6.7.7.7.7.7.7.7.7.7.7.* s d.^ ) g.#.A   6 T . 2 Y ; > 6.7.6.7.7.7.7.7.7.7.7.7.7.7.7.7.7.",
"7.7.7.7.7.7.7.7.7.7.7.7.7.7.6.7.7.X u g.+.O.r.` D 2 4 N < n T $ + 7.7.5.7.7.7.7.7.7.7.7.7.7.7.7.7.7.",
"7.7.6.7.7.7.7.7.7.7.7.7.7.7.6.7.7.X u g.g.,.F J P T 4   C T P $ - 6.7.6.7.7.7.7.7.7.7.7.7.7.7.7.7.7.",
"7.7.7.7.7.7.7.7.7.7.7.7.7.7.7.7.7.o u g.g.>.H P P T 4   C Y Y $ - 6.7.5.7.7.7.7.7.7.7.7.7.7.7.7.7.7.",
"7.7.7.7.7.7.7.7.7.7.7.7.7.7.7.7.3.O u g.g.>.H P P T 4   C Y P $ - 6.7.5.7.7.7.7.7.7.7.7.7.7.7.7.7.7.",
"7.7.7.7.7.7.7.7.7.7.7.7.7.7.7.7.4.o u g.g.>.H P P T 4   C U Y $ - 6.7.5.7.7.7.7.7.7.7.7.7.7.7.7.7.7.",
"7.7.7.7.7.7.7.7.7.7.7.7.7.7.7.7.5.o u g.g.>.H Y P T 4   B Y Y $ - 6.7.5.7.7.7.7.7.7.7.7.7.7.7.5.7.7.",
"7.7.7.7.7.7.7.7.7.7.7.7.7.7.6.7.4.o u g.g.>.J P P T 4   B T Y $ - 6.7.7.7.7.7.7.7.7.7.7.7.7.7.7.7.7.",
"7.7.7.7.7.6.7.7.7.7.7.7.7.7.5.7.4.o u g.g.r.S H P T 4   B Y P $ - 6.7.5.7.7.7.7.7.7.7.7.7.7.7.7.7.7.",
"7.7.7.7.7.7.7.7.7.7.7.7.6.6.6.8.7.o u g.>.;.+./ H T 4   B Y P $ - 6.7.6.7.7.7.7.7.7.7.7.7.7.7.7.7.7.",
"7.7.7.7.7.7.7.7.7.7.7.7.6.6.6.7.4.o u g.~ _ g.+.S W 4   C T P $ : 5.7.5.7.7.7.5.7.7.7.7.7.7.7.7.7.7.",
"7.7.7.7.7.7.7.7.7.7.7.7.7.7.6.7.4.o 1 ' E ! ( :.y.% g e.; b W @ + 5.7.5.7.7.7.7.7.7.7.7.7.7.7.7.7.7.",
"7.7.7.7.7.7.7.7.7.7.6.7.7.7.6.8.4.e 0 N K P S @.u.@ R i.; 3 V 9 i 5.7.5.7.7.7.7.7.7.7.7.7.7.7.7.7.7.",
"7.7.7.7.7.7.7.7.7.7.7.7.7.7.7.5.5.9.{   V T P P J J J L T M   *.8.5.6.6.7.7.7.7.7.7.7.7.7.7.7.5.7.7.",
"6.7.7.7.7.7.7.7.7.7.7.7.7.7.7.5.7.7.<.{ 8 5 T Y P P Y P 3 r  .2.7.6.7.7.7.7.7.7.7.7.7.7.7.7.7.7.7.7.",
"7.7.7.7.7.7.7.7.7.7.7.7.7.7.5.7.7.5.7.9., 7 K K P P K Z & j 0.5.5.7.7.6.7.7.7.7.7.7.7.7.7.7.7.7.7.7.",
"7.7.7.7.7.7.7.7.7.7.7.7.7.7.7.5.7.7.7.4.8.|   v W T 5   -.7.5.7.7.5.6.7.7.7.7.7.7.7.7.7.7.7.7.7.7.7.",
"7.7.7.7.7.7.7.7.7.7.7.7.7.7.7.7.5.7.5.5.8.-.j q x x t k 3.7.5.7.7.6.7.7.7.7.7.7.7.7.7.7.7.7.7.7.7.7.",
"7.7.7.7.7.7.7.7.7.7.7.7.7.7.7.7.7.5.7.7.7.7.w.j     z q.6.7.7.5.5.7.7.7.7.7.7.7.7.7.7.7.7.7.7.7.7.7.",
"7.7.7.7.7.5.7.7.7.7.7.7.7.7.7.7.7.7.7.7.7.5.7.1.&.&.1.6.6.7.5.7.7.7.7.7.7.7.7.7.7.7.7.7.7.7.7.7.7.7.",
"7.7.7.7.7.7.7.7.7.7.7.7.7.7.7.7.7.7.7.7.7.7.7.7.8.8.7.6.7.7.6.7.7.7.7.7.7.7.7.7.7.7.7.7.7.7.7.7.7.7.",
"7.7.7.7.7.7.7.7.7.7.7.7.7.7.7.7.7.7.7.7.5.5.7.5.5.5.5.7.5.5.7.7.7.7.7.7.7.7.7.7.7.7.7.7.7.7.7.7.7.7.",
"7.5.7.7.7.7.7.7.7.7.7.7.7.7.7.7.7.7.7.7.7.7.7.7.7.7.7.7.7.7.7.7.7.7.5.7.7.7.7.7.7.7.7.7.7.7.7.7.7.7.",
"7.7.7.7.7.7.7.7.7.5.7.7.7.7.7.7.7.7.7.7.7.7.7.7.7.5.7.7.7.7.7.7.7.7.7.7.7.7.7.7.7.7.7.7.7.7.7.7.7.7.",
"7.7.7.7.7.7.7.7.7.7.7.7.7.7.7.7.7.7.7.7.7.7.7.7.7.7.7.7.7.7.7.7.7.7.7.7.7.7.7.7.7.5.7.7.7.7.7.7.7.7.",
"7.7.7.7.7.7.7.7.7.7.7.7.7.7.7.7.7.7.7.7.7.7.7.7.7.7.7.7.7.7.7.7.7.7.7.7.7.7.7.7.7.7.5.7.7.7.7.7.7.7.",
"7.7.7.7.7.7.7.7.7.5.7.7.7.7.7.7.7.7.7.5.7.7.7.7.7.7.7.7.5.7.7.7.7.7.7.7.7.7.7.7.7.7.7.7.7.7.7.7.7.7.",
"7.7.7.7.7.7.7.7.7.7.7.7.7.7.7.7.7.7.7.7.7.7.7.7.7.7.7.7.7.7.7.7.7.7.7.7.7.7.7.7.7.7.7.7.7.7.7.7.7.7.",
"7.7.7.7.7.7.7.7.7.7.7.7.7.7.7.7.7.7.7.7.7.7.7.7.7.7.7.7.7.7.7.7.7.7.7.7.7.7.7.7.7.7.7.7.7.7.7.7.7.7.",
"7.7.7.7.7.7.7.7.7.7.7.7.7.5.7.7.7.7.7.7.7.7.7.7.7.7.7.7.7.7.7.7.7.7.7.7.7.7.7.7.7.7.7.5.7.7.7.7.7.7.",
"7.7.7.7.7.7.7.7.7.7.7.7.7.7.7.7.7.7.7.7.7.7.7.7.7.7.7.7.7.7.7.7.7.7.7.7.7.7.7.7.7.7.7.7.7.7.7.7.7.7."
};
