/* XPM */
static char *_f4e8cb7709245a38512f3dd41770928O8JgxCszXSVBjLh8[] = {
/* columns rows colors chars-per-pixel */
"50 50 159 2 ",
"   c #FFD8A0",
".  c #F0D494",
"X  c #4FAA16",
"o  c #48A810",
"O  c #51AA17",
"+  c #F2D495",
"@  c #47A610",
"#  c #41990F",
"$  c #41980F",
"%  c #42990F",
"&  c #48A910",
"*  c #40950E",
"=  c #040801",
"-  c #020501",
";  c #040901",
":  c #41970E",
">  c #3F940E",
",  c #000200",
"<  c black",
"1  c #020400",
"2  c #40960E",
"3  c #439711",
"4  c #221F15",
"5  c #221D15",
"6  c #1B1711",
"7  c #47A810",
"8  c #5DAD21",
"9  c #F9D59C",
"0  c #FCD69E",
"q  c #C7A87D",
"w  c #5EAE21",
"e  c #FCD79E",
"r  c #FFDBA2",
"t  c #C9AA7E",
"y  c #FFDAA2",
"u  c #CCB07F",
"i  c #091B00",
"p  c #0D1F03",
"a  c #091602",
"s  c #FFD9A2",
"d  c #D8CE81",
"f  c #46A80E",
"g  c #4AAC10",
"h  c #357C0C",
"j  c #45A70E",
"k  c #49AB10",
"l  c #347A0B",
"z  c #48AA10",
"x  c #448816",
"c  c #3A2F25",
"v  c #3B3225",
"b  c #3D3326",
"n  c #201B14",
"m  c #45A70D",
"M  c #7AB637",
"N  c #FFDDA7",
"B  c #FFDCA3",
"V  c #FFE3A8",
"C  c #907A5A",
"Z  c #79B536",
"A  c #FFD9A4",
"S  c #FFDFA5",
"D  c #8C7658",
"F  c #FFDDA5",
"G  c #968D5A",
"H  c #0C2A00",
"J  c #153205",
"K  c #0A1802",
"L  c #FFD9A5",
"P  c #AEC560",
"I  c #44AB0B",
"U  c #4DB311",
"Y  c #245508",
"T  c #FFDAA5",
"R  c #ADC360",
"E  c #42A60B",
"W  c #4BAE11",
"Q  c #204F06",
"!  c #47AB0F",
"~  c #507824",
"^  c #584738",
"/  c #584A37",
"(  c #5B4D39",
")  c #41A60B",
"_  c #AAC45C",
"`  c #FFE1AA",
"'  c #FFE6AA",
"]  c #504432",
"[  c #A5C15A",
"{  c #4C3E31",
"}  c #FFDCA5",
"|  c #627135",
" . c #184103",
".. c #1E4607",
"X. c #071102",
"o. c #82BB3C",
"O. c #47AD0E",
"+. c #4CB211",
"@. c #132B04",
"#. c #80B73C",
"$. c #44A70D",
"%. c #0C2400",
"&. c #47A90F",
"*. c #6C763C",
"=. c #78644C",
"-. c #77654B",
";. c #76674A",
":. c #4DA116",
">. c #D8D280",
",. c #FFE0A8",
"<. c #FFE0A6",
"1. c #FFDEA2",
"2. c #5CAE20",
"3. c #D2CC7C",
"4. c #FBD79C",
"5. c #5BAD1F",
"6. c #FFD9A1",
"7. c #F2D595",
"8. c #50AA16",
"9. c #2E271D",
"0. c #30311C",
"q. c #47A311",
"w. c #040C00",
"e. c #45A10F",
"r. c #030202",
"t. c #081003",
"y. c #5DAE21",
"u. c #FAD79C",
"i. c #FDD79E",
"p. c #D7CD80",
"a. c #78B536",
"s. c #FFD9A3",
"d. c #ACC25F",
"f. c #A4C059",
"g. c #7FB63B",
"h. c #D0CC7B",
"j. c #FFD8A1",
"k. c #F9D69B",
"l. c #DDBB8B",
"z. c #D1BA81",
"x. c #4EA915",
"c. c #4BA912",
"v. c #60AE23",
"b. c #61AE23",
"n. c #4EAA15",
"m. c #61AF24",
"M. c #55AC1B",
"N. c #47A80F",
"B. c #54AB1A",
"V. c #5AAD1E",
"C. c #F1D595",
"Z. c #F1D495",
"A. c #55AB1A",
"S. c #57AC1C",
"D. c #F2D596",
"F. c #FED89F",
"G. c #EFD493",
"H. c #EED493",
"J. c white",
/* pixels */
"  . X o o o o o o o o o o o o o o o o o o o o o o o o o o o o o o o o o o o o o o o o o o o o o O + ",
"  . X o o o o o o o o o o o o o o o o o o o o o o o o o o o o o o o o o o o o o o o o o o o o o O + ",
"  . X o @ # $ $ $ $ $ $ $ $ $ $ $ $ $ $ $ $ $ $ $ $ $ $ $ $ $ $ $ $ $ $ $ $ $ $ $ $ $ $ $ % @ o O + ",
"  . X & * = - - - - - - - - - - - - - - - - - - - - - - - - - - - - - - - - - - - - - - - ; : o O + ",
"  . X & > , < < < < < < < < < < < < < < < < < < < < < < < < < < < < < < < < < < < < < < < 1 2 o O + ",
"  . X o 3 4 5 5 5 5 6 < < < < < < < < < < < < < < < < < < < < < < < < < < < < < < < < < < 1 2 o O + ",
"  . X 7 8 9 0 0 0   q < < < < < < < < < < < < < < < < < < < < < < < < < < < < < < < < < < 1 2 o O + ",
"  . X 7 w e       r t < < < < < < < < < < < < < < < < < < < < < < < < < < < < < < < < < < 1 2 o O + ",
"  . X 7 w e       y u i p a < < < < < < < < < < < < < < < < < < < < < < < < < < < < < < < 1 2 o O + ",
"  . X 7 w e       s d f g h < < < < < < < < < < < < < < < < < < < < < < < < < < < < < < < 1 2 o O + ",
"  . X 7 w e       s d j k l < < < < < < < < < < < < < < < < < < < < < < < < < < < < < < < 1 2 o O + ",
"  . X 7 w e       s d j z x c v v v v v v b n < < < < < < < < < < < < < < < < < < < < < < 1 2 o O + ",
"  . X 7 w e       s d j m M N B B B B B B V C < < < < < < < < < < < < < < < < < < < < < < 1 2 o O + ",
"  . X 7 w e       s d j m Z A             S D < < < < < < < < < < < < < < < < < < < < < < 1 2 o O + ",
"  . X 7 w e       s d j m Z A             F G H J K < < < < < < < < < < < < < < < < < < < 1 2 o O + ",
"  . X 7 w e       s d j m Z A             L P I U Y < < < < < < < < < < < < < < < < < < < 1 2 o O + ",
"  . X 7 w e       s d j m Z A             T R E W Q < < < < < < < < < < < < < < < < < < < 1 2 o O + ",
"  . X 7 w e       s d j m Z A             T R E ! ~ ^ / / / / / / ( 6 < < < < < < < < < < 1 2 o O + ",
"  . X 7 w e       s d j m Z A             T R E ) _ ` S S S S S S ' ] < < < < < < < < < < 1 2 o O + ",
"  . X 7 w e       s d j m Z A             T R E E [ T             S { < < < < < < < < < < 1 2 o O + ",
"  . X 7 w e       s d j m Z A             T R E E [ T             } |  ...X.< < < < < < < 1 2 o O + ",
"  . X 7 w e       s d j m Z A             T R E E [ T             A o.O.+.@.< < < < < < < 1 2 o O + ",
"  . X 7 w e       s d j m Z A             T R E E [ T             A #.$.g %.< < < < < < < < 2 o O + ",
"  . X 7 w e       s d j m Z A             T R E E [ T             A #.$.&.*.=.-.-.-.-.-.-.;.:.o O + ",
"  . X 7 w e       s d j m Z A             T R E E [ T             A #.$.$.>.,.<.<.<.<.<.<.1.2.o O + ",
"  . X 7 w e       s d j m Z A             T R E E [ T             A #.$.$.3.s             4.5.o O + ",
"  . X 7 w e       s d j m Z A             T R E E [ T             A #.$.$.3.s             4.5.o O + ",
"  . X 7 w e       s d j m Z A             T R E E [ T             A #.$.$.3.s             4.5.o O + ",
"  . X 7 w e       s d j m Z A             T R E E [ T             A #.$.$.3.s             4.5.o O + ",
"  . X 7 w e       s d j m Z A             T R E E [ T             A #.$.$.3.s             4.5.o O + ",
"  . X 7 w e       s d j m Z A             T R E E [ T             A #.$.$.3.s             4.5.o O + ",
"  . X 7 w e       s d j m Z A             T R E E [ T             A #.$.$.3.s             4.5.o O + ",
"  . X 7 w e       s d j m Z A             T R E E [ T             A #.$.$.3.s             4.5.o O + ",
"  . X 7 w e       s d j m Z A             T R E E [ T             A #.$.$.3.s             4.5.o O + ",
"  . X 7 w e       s d j m Z A             T R E E [ T             A #.$.$.3.s             4.5.o O + ",
"  . X 7 w e       s d j m Z A             T R E E [ T             A #.$.$.3.s             4.5.o O + ",
"  . X 7 w e       s d j m Z A             T R E E [ T             A #.$.$.3.s             4.5.o O + ",
"  . X 7 w e       s d j m Z A             T R E E [ T             A #.$.$.3.s             4.5.o O + ",
"  . X 7 w e       s d j m Z A             T R E E [ T             A #.$.$.3.s             4.5.o O + ",
"  . X 7 w e       s d j m Z A             T R E E [ T             A #.$.$.3.s             4.5.o O + ",
"6.7.8.7 w e       s d j m Z A             T R E E [ T             A #.$.$.3.s             4.5.o O + ",
"9.0.q.7 w e       s d j m Z A             T R E E [ T             A #.$.$.3.s             4.5.o O + ",
"< w.e.7 w e       s d j m Z A             T R E E [ T             A #.$.$.3.s             4.5.o O + ",
"r.t.e.7 y.u.i.i.i.  p.j m a.s i.i.i.i.i.i.s.d.E E f.s.i.i.i.i.i.i.s.g.$.$.h.j.i.i.i.i.i.i.k.5.o O + ",
"l.z.x.o c.v.v.v.v.b.5.o o n.m.v.v.v.v.v.v.m.M.N.N.B.m.v.v.v.v.v.v.m.X 7 7 V.b.v.v.v.v.v.v.v.c.o O + ",
"6.C.8.o o N.N.N.N.N.N.o o o N.N.N.N.N.N.N.N.o o o o N.N.N.N.N.N.N.N.o o o 7 N.N.N.N.N.N.N.N.o o O + ",
"  Z.A.n.n.n.n.n.n.n.n.n.n.n.n.n.n.n.n.n.n.n.n.n.n.n.n.n.n.n.n.n.n.n.n.n.n.n.n.n.n.n.n.n.n.n.n.n.S.D.",
"  F.G.H.H.H.H.H.H.H.H.H.H.H.H.H.H.H.H.H.H.H.H.H.H.H.H.H.H.H.H.H.H.H.H.H.H.H.H.H.H.H.H.H.H.H.H.H.G.F.",
"                                                                                                    ",
"                                                                                                    "
};
