/* XPM */
static char *_2162fb82f4e4e13fe7a2b2dcc5f516apH2lRi0go00dQuop[] = {
/* columns rows colors chars-per-pixel */
"51 51 3 1 ",
"  c #48A810",
". c black",
"X c #FFD8A0",
/* pixels */
"XX                                                X",
"XX                                                X",
"XX                                                X",
"XX   ..........................................   X",
"XX   ..........................................   X",
"XX   ..........................................   X",
"XX   XXXXXX....................................   X",
"XX   XXXXXX....................................   X",
"XX   XXXXXX....................................   X",
"XX   XXXXXX   .................................   X",
"XX   XXXXXX   .................................   X",
"XX   XXXXXX   .................................   X",
"XX   XXXXXX   XXXXXXXXX........................   X",
"XX   XXXXXX   XXXXXXXXX........................   X",
"XX   XXXXXX   XXXXXXXXX........................   X",
"XX   XXXXXX   XXXXXXXXX   .....................   X",
"XX   XXXXXX   XXXXXXXXX   .....................   X",
"XX   XXXXXX   XXXXXXXXX   .....................   X",
"XX   XXXXXX   XXXXXXXXX   XXXXXXXXX............   X",
"XX   XXXXXX   XXXXXXXXX   XXXXXXXXX............   X",
"XX   XXXXXX   XXXXXXXXX   XXXXXXXXX............   X",
"XX   XXXXXX   XXXXXXXXX   XXXXXXXXX   .........   X",
"XX   XXXXXX   XXXXXXXXX   XXXXXXXXX   .........   X",
"XX   XXXXXX   XXXXXXXXX   XXXXXXXXX   .........   X",
"XX   XXXXXX   XXXXXXXXX   XXXXXXXXX   XXXXXXXXX   X",
"XX   XXXXXX   XXXXXXXXX   XXXXXXXXX   XXXXXXXXX   X",
"XX   XXXXXX   XXXXXXXXX   XXXXXXXXX   XXXXXXXXX   X",
"XX   XXXXXX   XXXXXXXXX   XXXXXXXXX   XXXXXXXXX   X",
"XX   XXXXXX   XXXXXXXXX   XXXXXXXXX   XXXXXXXXX   X",
"XX   XXXXXX   XXXXXXXXX   XXXXXXXXX   XXXXXXXXX   X",
"XX   XXXXXX   XXXXXXXXX   XXXXXXXXX   XXXXXXXXX   X",
"XX   XXXXXX   XXXXXXXXX   XXXXXXXXX   XXXXXXXXX   X",
"XX   XXXXXX   XXXXXXXXX   XXXXXXXXX   XXXXXXXXX   X",
"XX   XXXXXX   XXXXXXXXX   XXXXXXXXX   XXXXXXXXX   X",
"XX   XXXXXX   XXXXXXXXX   XXXXXXXXX   XXXXXXXXX   X",
"XX   XXXXXX   XXXXXXXXX   XXXXXXXXX   XXXXXXXXX   X",
"XX   XXXXXX   XXXXXXXXX   XXXXXXXXX   XXXXXXXXX   X",
"XX   XXXXXX   XXXXXXXXX   XXXXXXXXX   XXXXXXXXX   X",
"XX   XXXXXX   XXXXXXXXX   XXXXXXXXX   XXXXXXXXX   X",
"XX   XXXXXX   XXXXXXXXX   XXXXXXXXX   XXXXXXXXX   X",
"XX   XXXXXX   XXXXXXXXX   XXXXXXXXX   XXXXXXXXX   X",
"XX   XXXXXX   XXXXXXXXX   XXXXXXXXX   XXXXXXXXX   X",
"..   XXXXXX   XXXXXXXXX   XXXXXXXXX   XXXXXXXXX   X",
"..   XXXXXX   XXXXXXXXX   XXXXXXXXX   XXXXXXXXX   X",
"..   XXXXXX   XXXXXXXXX   XXXXXXXXX   XXXXXXXXX   X",
"XX                                                X",
"XX                                                X",
"XX                                                X",
"XXXXXXXXXXXXXXXXXXXXXXXXXXXXXXXXXXXXXXXXXXXXXXXXXXX",
"XXXXXXXXXXXXXXXXXXXXXXXXXXXXXXXXXXXXXXXXXXXXXXXXXXX",
"XXXXXXXXXXXXXXXXXXXXXXXXXXXXXXXXXXXXXXXXXXXXXXXXXXX"
};
