/* XPM */
static char *b735104a0c474c1690c3e0c3af5dd164m5S8L0uGPA7ZFRnJ[] = {
/* columns rows colors chars-per-pixel */
"50 50 4 1 ",
"  c #C07000",
". c #A0B8FF",
"X c #FFA000",
"o c #FFD8A0",
/* pixels */
"oooooooooooooooooooooooooooooooooooooooooooooooooo",
"oooooooooooooooooooooo............oooooooooooooooo",
"oooooooooooooooooooooo............oooooooooooooooo",
"oooooooooooooooooooooo............oooooooooooooooo",
"ooooooooooooo            ...............oooooooooo",
"ooooooooooooo            ...............oooooooooo",
"ooooooooooooo            ...............oooooooooo",
"oooooooooo                  ......XXX.........oooo",
"oooooooooo                  ......XXX.........oooo",
"oooooooooo                  ......XXX.........oooo",
"o      oooooo                  XXXXXX............o",
"o      oooooo                  XXXXXX............o",
"o      oooooo                  XXXXXX............o",
"o      ooooooXXX...XXXXXX   XXXXXXXXX......ooo...o",
"o      ooooooXXX...XXXXXX   XXXXXXXXX......ooo...o",
"o      ooooooXXX...XXXXXX   XXXXXXXXX......ooo...o",
"oXXX   XXXXXXXXX   XXXXXX   XXXXXX      ...ooooooo",
"oXXX   XXXXXXXXX   XXXXXX   XXXXXX      ...ooooooo",
"oXXX   XXXXXXXXX   XXXXXX   XXXXXX      ...ooooooo",
"oXXX   ooooooXXXXXXXXXXXXXXXXXX         oooooooooo",
"oXXX   ooooooXXXXXXXXXXXXXXXXXX         oooooooooo",
"oXXX   ooooooXXXXXXXXXXXXXXXXXX         oooooooooo",
"oXXX   ooooooXXXXXXXXXXXX............ooooooooooooo",
"oXXX   ooooooXXXXXXXXXXXX............ooooooooooooo",
"oXXX   ooooooXXXXXXXXXXXX............ooooooooooooo",
"oXXX   XXX         .....................   ooooooo",
"oXXX   XXX         .....................   ooooooo",
"oXXX   XXX         .....................   ooooooo",
"oXXX   XXX      .........XXXXXXXXX...         oooo",
"oXXX   XXX      .........XXXXXXXXX...         oooo",
"oXXX   XXX      .........XXXXXXXXX...         oooo",
"oXXX   ooo      .........XXXXXXXXX            oooo",
"oXXX   ooo      .........XXXXXXXXX            oooo",
"oXXX   ooo      .........XXXXXXXXX            oooo",
"oXXX   ooooooooo   .........XXXXXX            oooo",
"oXXX   ooooooooo   .........XXXXXX            oooo",
"oXXX   ooooooooo   .........XXXXXX            oooo",
"oXXX   ooooooooo            ......      ...ooooooo",
"oXXX   ooooooooo            ......      ...ooooooo",
"oXXX   ooooooooo            ......      ...ooooooo",
"o      ooooooooo..............................oooo",
"o      ooooooooo..............................oooo",
"o      ooooooooo..............................oooo",
"o      oooooooooooooooooo            ooooooooooooo",
"o      oooooooooooooooooo            ooooooooooooo",
"o      oooooooooooooooooo            ooooooooooooo",
"oooooooooooooooooooooo               ooooooooooooo",
"oooooooooooooooooooooo               ooooooooooooo",
"oooooooooooooooooooooo               ooooooooooooo",
"oooooooooooooooooooooooooooooooooooooooooooooooooo"
};
