/* XPM */
static char *_3692ab4b3874500f051fbf9374e4188I80oZ223HGr2X8mj[] = {
/* columns rows colors chars-per-pixel */
"50 50 5 1 ",
"  c #FFD8A0",
". c #A0B8FF",
"X c #C07000",
"o c #FFA000",
"O c white",
/* pixels */
"                                                  ",
"                ............                      ",
"                ............                      ",
"                ............                      ",
"          ...............XXXXXXXXXXXX             ",
"          ...............XXXXXXXXXXXX             ",
"          ...............XXXXXXXXXXXX             ",
"    .........ooo......XXXXXXXXXXXXXXXXXX          ",
"    .........ooo......XXXXXXXXXXXXXXXXXX          ",
"    .........ooo......XXXXXXXXXXXXXXXXXX          ",
" ............ooooooXXXXXXXXXXXXXXXXXX      XXXXXX ",
" ............ooooooXXXXXXXXXXXXXXXXXX      XXXXXX ",
" ............ooooooXXXXXXXXXXXXXXXXXX      XXXXXX ",
" ...   ......oooooooooXXXoooooo...ooo      XXXXXX ",
" ...   ......oooooooooXXXoooooo...ooo      XXXXXX ",
" ...   ......oooooooooXXXoooooo...ooo      XXXXXX ",
"       ...XXXXXXooooooXXXooooooXXXoooooooooXXXooo ",
"       ...XXXXXXooooooXXXooooooXXXoooooooooXXXooo ",
"       ...XXXXXXooooooXXXooooooXXXoooooooooXXXooo ",
"          XXXXXXXXXoooooooooooooooooo      XXXooo ",
"          XXXXXXXXXoooooooooooooooooo      XXXooo ",
"          XXXXXXXXXoooooooooooooooooo      XXXooo ",
"             ............oooooooooooo      XXXooo ",
"             ............oooooooooooo      XXXooo ",
"             ............oooooooooooo      XXXooo ",
"       XXX.....................XXXXXXXXXoooXXXooo ",
"       XXX.....................XXXXXXXXXoooXXXooo ",
"       XXX.....................XXXXXXXXXoooXXXooo ",
"    XXXXXXXXX...ooooooooo.........XXXXXXoooXXXooo ",
"    XXXXXXXXX...ooooooooo.........XXXXXXoooXXXooo ",
"    XXXXXXXXX...ooooooooo.........XXXXXXoooXXXooo ",
"    XXXXXXXXXXXXooooooooo.........XXXXXX   XXXooo ",
"    XXXXXXXXXXXXooooooooo.........XXXXXX   XXXooo ",
"    XXXXXXXXXXXXooooooooo.........XXXXXX   XXXooo ",
"    XXXXXXXXXXXXoooooo.........XXX         XXXooo ",
"    XXXXXXXXXXXXoooooo.........XXX         XXXooo ",
"    XXXXXXXXXXXXoooooo.........XXX         XXXooo ",
"       ...XXXXXX......XXXXXXXXXXXX         XXXooo ",
"       ...XXXXXX......XXXXXXXXXXXX         XXXooo ",
"       ...XXXXXX......XXXXXXXXXXXX         XXXooo ",
"    ..............................         XXXXXX ",
"    ..............................         XXXXXX ",
"    ..............................         XXXXXX ",
"             XXXXXXXXXXXX                  XXXXXX ",
"             XXXXXXXXXXXX                  XXXXXX ",
"             XXXXXXXXXXXX                  XXXXXX ",
"             XXXXXXXXXXXXXXX                      ",
"             XXXXXXXXXXXXXXX                      ",
"             XXXXXXXXXXXXXXX                      ",
"                                                  "
};
