/* XPM */
static char *_81d54e71bc7472caac3bc2f85f129fbjSmtttyc9BQ9jzNR[] = {
/* columns rows colors chars-per-pixel */
"50 50 4 1 ",
"  c #48A810",
". c black",
"X c #FFD8A0",
"o c #4040FF",
/* pixels */
"XXXXXXXXXXXXXXXXXXXXXXXXXXXXXXXXXXXXXXXXXXXXXXXXXX",
"XXXXXXXXXXXXXXXXXXXXXXXXXXXXXXXXXXXXXXXXXXXXXXXXXX",
"XXXXXXXXXXXXXXXXXXXXXXXXXXXXXXXXXXXXXXXXXXXXXXXXXX",
"XXXXXXXXXXXXXX   XXX   .........XXXXXXXXXXXXXXXXXX",
"XXXXXXXXXXXXXX   XXX   .........XXXXXXXXXXXXXXXXXX",
"XXXXXXXXXXXXXX   XXX   .........XXXXXXXXXXXXXXXXXX",
"XXXXXXXX   XXX               ............XXXXXXXXX",
"XXXXXXXX   XXX               ............XXXXXXXXX",
"XXXXXXXX   XXX               ............XXXXXXXXX",
"XXXXXXXX      ...               ......   ...XXXXXX",
"XXXXXXXX      ...               ......   ...XXXXXX",
"XXXXXXXX      ...               ......   ...XXXXXX",
"XXXXX                              .........XXXXXX",
"XXXXX                              .........XXXXXX",
"XXXXX                              .........XXXXXX",
"XXXXX               ...         ...   .........XXX",
"XXXXX               ...         ...   .........XXX",
"XXXXX               ...         ...   .........XXX",
"XX                              ............XXXXXX",
"XX                              ............XXXXXX",
"XX                              ............XXXXXX",
"XX      ...                        ............XXX",
"XX      ...                        ............XXX",
"XX      ...                        ............XXX",
"XXXXX                     ...      ......   ...XXX",
"XXXXX                     ...      ......   ...XXX",
"XXXXX                     ...      ......   ...XXX",
"XX            ...                  ............XXX",
"XX            ...                  ............XXX",
"XX            ...                  ............XXX",
"XX                           ...............XXXXXX",
"XX                           ...............XXXXXX",
"XX                           ...............XXXXXX",
"XX      ...                     ...   ......XXXXXX",
"XX      ...                     ...   ......XXXXXX",
"XX      ...                     ...   ......XXXXXX",
"XXXXX                  ..................XXXXXXXXX",
"XXXXX                  ..................XXXXXXXXX",
"XXXXX                  ..................XXXXXXXXX",
"XXXXXXXXXXX      ooo   ooo......   XXXXXXXXXXXXXXX",
"XXXXXXXXXXX      ooo   ooo......   XXXXXXXXXXXXXXX",
"XXXXXXXXXXX      ooo   ooo......   XXXXXXXXXXXXXXX",
"XXXXXXXXXXXXXX...ooooooooooooooo..................",
"XXXXXXXXXXXXXX...ooooooooooooooo..................",
"XXXXXXXXXXXXXX...ooooooooooooooo..................",
"XXXXXXXXXXX.................................XXXXXX",
"XXXXXXXXXXX.................................XXXXXX",
"XXXXXXXXXXX.................................XXXXXX",
"XXXXXXXXXXXXXXXXXXXXXXXXXXXXXXXXXXXXXXXXXXXXXXXXXX",
"XXXXXXXXXXXXXXXXXXXXXXXXXXXXXXXXXXXXXXXXXXXXXXXXXX"
};
